<svg width="44" height="44" viewBox="0 0 44 44" fill="none" xmlns="http://www.w3.org/2000/svg">
<path d="M30.6165 34.7962H13.3832C12.6132 34.7962 11.7515 34.1912 11.4949 33.4578L3.90488 12.2278C2.82321 9.18451 4.08821 8.24951 6.69154 10.1195L13.8415 15.2345C15.0332 16.0595 16.3899 15.6378 16.9032 14.2995L20.1299 5.70117C21.1565 2.95117 22.8615 2.95117 23.8882 5.70117L27.1149 14.2995C27.6282 15.6378 28.9849 16.0595 30.1582 15.2345L36.8682 10.4495C39.7282 8.39617 41.1032 9.44117 39.9299 12.7595L32.5232 33.4945C32.2482 34.1912 31.3865 34.7962 30.6165 34.7962Z" stroke="#5251EC" stroke-width="2.5" stroke-linecap="round" stroke-linejoin="round"/>
<path d="M11.917 40.334H32.0837" stroke="#5251EC" stroke-width="2.5" stroke-linecap="round" stroke-linejoin="round"/>
<path d="M17.417 25.666H26.5837" stroke="#5251EC" stroke-width="2.5" stroke-linecap="round" stroke-linejoin="round"/>
</svg>
