<svg width="44" height="44" viewBox="0 0 44 44" fill="none" xmlns="http://www.w3.org/2000/svg">
<path d="M16.5003 40.3346H27.5003C36.667 40.3346 40.3337 36.668 40.3337 27.5013V16.5013C40.3337 7.33464 36.667 3.66797 27.5003 3.66797H16.5003C7.33366 3.66797 3.66699 7.33464 3.66699 16.5013V27.5013C3.66699 36.668 7.33366 40.3346 16.5003 40.3346Z" stroke="#5251EC" stroke-width="2.5" stroke-linecap="round" stroke-linejoin="round"/>
<path d="M12.833 15.125C14.6663 16.9583 17.6547 16.9583 19.5063 15.125" stroke="#5251EC" stroke-width="2.5" stroke-miterlimit="10" stroke-linecap="round" stroke-linejoin="round"/>
<path d="M24.4932 15.125C26.3265 16.9583 29.3148 16.9583 31.1665 15.125" stroke="#5251EC" stroke-width="2.5" stroke-miterlimit="10" stroke-linecap="round" stroke-linejoin="round"/>
<path d="M15.4 23.832H28.6C29.5167 23.832 30.25 24.5654 30.25 25.482C30.25 30.047 26.565 33.732 22 33.732C17.435 33.732 13.75 30.047 13.75 25.482C13.75 24.5654 14.4833 23.832 15.4 23.832Z" stroke="#5251EC" stroke-width="2.5" stroke-miterlimit="10" stroke-linecap="round" stroke-linejoin="round"/>
</svg>
