<svg width="44" height="44" viewBox="0 0 44 44" fill="none" xmlns="http://www.w3.org/2000/svg">
<path d="M31.8632 19.0299V24.9515C31.8632 29.8832 29.8832 31.8632 24.9515 31.8632H19.0298C14.0982 31.8632 12.1182 29.8832 12.1182 24.9515V19.0299C12.1182 14.0982 14.0982 12.1182 19.0298 12.1182H24.9515C29.9015 12.1365 31.8632 14.0982 31.8632 19.0299Z" stroke="#040404" stroke-width="2.5" stroke-linecap="round" stroke-linejoin="round"/>
<path d="M40.3329 10.5786V16.5003C40.3329 21.432 38.3529 23.412 33.4212 23.412H31.8629V19.0487C31.8629 14.117 29.8829 12.137 24.9512 12.137H20.5879V10.5786C20.5879 5.64697 22.5679 3.66699 27.4996 3.66699H33.4212C38.3529 3.66699 40.3329 5.64697 40.3329 10.5786Z" stroke="#040404" stroke-width="2.5" stroke-linecap="round" stroke-linejoin="round"/>
<path d="M3.66699 33.4212V27.4995C3.66699 22.5679 5.64699 20.5879 10.5787 20.5879H12.137V24.9512C12.137 29.8828 14.117 31.8629 19.0487 31.8629H23.412V33.4212C23.412 38.3529 21.432 40.3329 16.5003 40.3329H10.5787C5.64699 40.3329 3.66699 38.3529 3.66699 33.4212Z" stroke="#040404" stroke-width="2.5" stroke-linecap="round" stroke-linejoin="round"/>
</svg>
