<svg width="44" height="44" viewBox="0 0 44 44" fill="none" xmlns="http://www.w3.org/2000/svg">
<path d="M40.3334 31.5324C40.3334 33.1824 39.8751 34.7407 39.0501 36.0607C37.5284 38.609 34.7417 40.3324 31.5334 40.3324C28.3251 40.3324 25.5201 38.609 24.0167 36.0607C23.2101 34.7407 22.7334 33.1824 22.7334 31.5324C22.7334 26.6741 26.6751 22.7324 31.5334 22.7324C36.3917 22.7324 40.3334 26.6741 40.3334 31.5324Z" stroke="#5251EC" stroke-width="2.5" stroke-miterlimit="10" stroke-linecap="round" stroke-linejoin="round"/>
<path d="M28.1055 31.5325L30.2688 33.6958L34.9621 29.3691" stroke="#5251EC" stroke-width="2.5" stroke-linecap="round" stroke-linejoin="round"/>
<path d="M40.3337 15.932C40.3337 19.5436 39.3987 22.7336 37.932 25.5019C36.3187 23.7969 34.0453 22.7337 31.5337 22.7337C26.6753 22.7337 22.7337 26.6753 22.7337 31.5337C22.7337 33.7887 23.5953 35.842 24.9887 37.4003C24.3103 37.712 23.687 37.9686 23.137 38.152C22.5137 38.372 21.487 38.372 20.8637 38.152C15.547 36.337 3.66699 28.7653 3.66699 15.932C3.66699 10.267 8.23199 5.68359 13.8603 5.68359C17.1787 5.68359 20.1487 7.297 22.0003 9.772C23.852 7.297 26.822 5.68359 30.1403 5.68359C35.7687 5.68359 40.3337 10.267 40.3337 15.932Z" stroke="#5251EC" stroke-width="2.5" stroke-linecap="round" stroke-linejoin="round"/>
</svg>
