<svg width="44" height="44" viewBox="0 0 44 44" fill="none" xmlns="http://www.w3.org/2000/svg">
<path d="M19.7083 4.49094C20.9733 3.40927 23.0449 3.40927 24.3283 4.49094L27.225 6.98447C27.775 7.46113 28.8016 7.84608 29.5349 7.84608H32.6516C34.5949 7.84608 36.1899 9.44096 36.1899 11.3843V14.5011C36.1899 15.2161 36.5749 16.2611 37.0516 16.8111L39.545 19.7077C40.6266 20.9727 40.6266 23.0444 39.545 24.3277L37.0516 27.2243C36.5749 27.7743 36.1899 28.801 36.1899 29.5343V32.6511C36.1899 34.5945 34.5949 36.1893 32.6516 36.1893H29.5349C28.8199 36.1893 27.775 36.5743 27.225 37.051L24.3283 39.5443C23.0633 40.6259 20.9916 40.6259 19.7083 39.5443L16.8116 37.051C16.2616 36.5743 15.235 36.1893 14.5016 36.1893H11.3299C9.3866 36.1893 7.79161 34.5945 7.79161 32.6511V29.516C7.79161 28.801 7.40663 27.7743 6.94829 27.2243L4.47328 24.3094C3.40995 23.0444 3.40995 20.991 4.47328 19.726L6.94829 16.8111C7.40663 16.2611 7.79161 15.2344 7.79161 14.5194V11.3843C7.79161 9.44096 9.3866 7.84608 11.3299 7.84608H14.5016C15.2166 7.84608 16.2616 7.46113 16.8116 6.98447L19.7083 4.49094Z" stroke="#5251EC" stroke-width="2.5" stroke-linecap="round" stroke-linejoin="round"/>
<path d="M18.1314 27.1677L20.7897 29.221C21.1381 29.5693 21.9081 29.7344 22.4214 29.7344H25.6664C26.6931 29.7344 27.8114 28.9644 28.0681 27.9378L30.1214 21.6677C30.5431 20.476 29.7731 19.4311 28.4898 19.4311H25.0614C24.5481 19.4311 24.1264 19.0095 24.1998 18.4045L24.6214 15.6545C24.7864 14.8845 24.2731 14.0228 23.5031 13.7661C22.8247 13.5095 21.9631 13.8577 21.6148 14.3711L18.0947 19.596" stroke="#5251EC" stroke-width="2.5" stroke-miterlimit="10"/>
<path d="M13.75 27.1689V18.7723C13.75 17.5623 14.2633 17.1406 15.4733 17.1406H16.335C17.5267 17.1406 18.0583 17.5623 18.0583 18.7723V27.1689C18.0583 28.3606 17.545 28.8006 16.335 28.8006H15.4733C14.2633 28.8006 13.75 28.3789 13.75 27.1689Z" stroke="#5251EC" stroke-width="2.5" stroke-linecap="round" stroke-linejoin="round"/>
</svg>
