<svg width="44" height="44" viewBox="0 0 44 44" fill="none" xmlns="http://www.w3.org/2000/svg">
<path d="M34.8337 16.5013C34.8337 19.1596 34.0453 21.598 32.6887 23.633C30.7087 26.5663 27.5737 28.638 23.9253 29.1696C23.302 29.2796 22.6603 29.3346 22.0003 29.3346C21.3403 29.3346 20.6987 29.2796 20.0753 29.1696C16.427 28.638 13.292 26.5663 11.312 23.633C9.95533 21.598 9.16699 19.1596 9.16699 16.5013C9.16699 9.4063 14.9053 3.66797 22.0003 3.66797C29.0953 3.66797 34.8337 9.4063 34.8337 16.5013Z" stroke="#5251EC" stroke-width="2.5" stroke-linecap="round" stroke-linejoin="round"/>
<path d="M38.9583 33.8601L35.9333 34.5751C35.255 34.7401 34.7233 35.2535 34.5766 35.9318L33.935 38.6268C33.5866 40.0935 31.7167 40.5335 30.745 39.3785L22 29.3318L13.255 39.3968C12.2833 40.5518 10.4133 40.1118 10.065 38.6451L9.42331 35.9501C9.25831 35.2718 8.72665 34.7401 8.06665 34.5934L5.04165 33.8785C3.64831 33.5485 3.15331 31.8068 4.16165 30.7984L11.3116 23.6484C13.2916 26.5818 16.4266 28.6535 20.075 29.1851C20.6983 29.2951 21.34 29.3501 22 29.3501C22.66 29.3501 23.3016 29.2951 23.925 29.1851C27.5733 28.6535 30.7083 26.5818 32.6883 23.6484L39.8383 30.7984C40.8466 31.7884 40.3516 33.5301 38.9583 33.8601Z" stroke="#5251EC" stroke-width="2.5" stroke-linecap="round" stroke-linejoin="round"/>
<path d="M23.0636 10.962L24.1453 13.1254C24.2919 13.4187 24.6769 13.712 25.0253 13.767L26.9869 14.097C28.2336 14.2987 28.5269 15.2154 27.6286 16.1137L26.1069 17.6353C25.8503 17.892 25.7036 18.387 25.7953 18.7537L26.2353 20.642C26.5836 22.127 25.7953 22.7137 24.4753 21.9253L22.6419 20.8437C22.3119 20.642 21.7619 20.642 21.4319 20.8437L19.5986 21.9253C18.2786 22.6953 17.4903 22.127 17.8386 20.642L18.2786 18.7537C18.3519 18.4054 18.2236 17.892 17.9669 17.6353L16.4453 16.1137C15.5469 15.2154 15.8403 14.317 17.0869 14.097L19.0486 13.767C19.3786 13.712 19.7636 13.4187 19.9103 13.1254L20.9919 10.962C21.5236 9.7887 22.4769 9.7887 23.0636 10.962Z" stroke="#5251EC" stroke-width="2.5" stroke-linecap="round" stroke-linejoin="round"/>
</svg>
