<svg width="44" height="44" viewBox="0 0 44 44" fill="none" xmlns="http://www.w3.org/2000/svg">
<path d="M33.862 30.8563L34.577 36.6496C34.7604 38.1713 33.1287 39.2346 31.827 38.4462L24.1454 33.8813C23.302 33.8813 22.4771 33.8263 21.6704 33.7163C23.0271 32.1213 23.8337 30.1046 23.8337 27.9229C23.8337 22.7163 19.3237 18.4997 13.7504 18.4997C11.6237 18.4997 9.66205 19.1046 8.03038 20.168C7.97538 19.7096 7.95703 19.2513 7.95703 18.7746C7.95703 10.433 15.1987 3.66797 24.1454 3.66797C33.092 3.66797 40.3337 10.433 40.3337 18.7746C40.3337 23.7246 37.7854 28.1063 33.862 30.8563Z" stroke="#5251EC" stroke-width="2.5" stroke-linecap="round" stroke-linejoin="round"/>
<path d="M23.8337 27.9213C23.8337 30.103 23.027 32.1197 21.6703 33.7147C19.8553 35.9147 16.977 37.3263 13.7503 37.3263L8.96532 40.1679C8.15866 40.6629 7.13199 39.9846 7.24199 39.0496L7.70032 35.438C5.24365 33.733 3.66699 31.0013 3.66699 27.9213C3.66699 24.6946 5.39033 21.853 8.03033 20.1663C9.662 19.103 11.6237 18.498 13.7503 18.498C19.3237 18.498 23.8337 22.7146 23.8337 27.9213Z" stroke="#5251EC" stroke-width="2.5" stroke-linecap="round" stroke-linejoin="round"/>
</svg>
