<svg width="44" height="44" viewBox="0 0 44 44" fill="none" xmlns="http://www.w3.org/2000/svg">
<path d="M33.0005 13.128C32.8905 13.1096 32.7621 13.1096 32.6521 13.128C30.1221 13.0363 28.1055 10.9646 28.1055 8.39797C28.1055 5.77631 30.2138 3.66797 32.8355 3.66797C35.4571 3.66797 37.5655 5.79464 37.5655 8.39797C37.5471 10.9646 35.5305 13.0363 33.0005 13.128Z" stroke="#5251EC" stroke-width="2.5" stroke-linecap="round" stroke-linejoin="round"/>
<path d="M31.1126 26.4749C33.6243 26.8966 36.3926 26.4566 38.336 25.1549C40.921 23.4316 40.921 20.6083 38.336 18.8849C36.3743 17.5833 33.5693 17.1433 31.0576 17.5833" stroke="#5251EC" stroke-width="2.5" stroke-linecap="round" stroke-linejoin="round"/>
<path d="M10.9449 13.128C11.0549 13.1096 11.1832 13.1096 11.2932 13.128C13.8232 13.0363 15.8399 10.9646 15.8399 8.39797C15.8399 5.77631 13.7316 3.66797 11.1099 3.66797C8.48822 3.66797 6.37988 5.79464 6.37988 8.39797C6.39822 10.9646 8.41489 13.0363 10.9449 13.128Z" stroke="#5251EC" stroke-width="2.5" stroke-linecap="round" stroke-linejoin="round"/>
<path d="M12.833 26.4749C10.3213 26.8966 7.55298 26.4566 5.60965 25.1549C3.02465 23.4316 3.02465 20.6083 5.60965 18.8849C7.57132 17.5833 10.3763 17.1433 12.888 17.5833" stroke="#5251EC" stroke-width="2.5" stroke-linecap="round" stroke-linejoin="round"/>
<path d="M22.0005 26.8233C21.8905 26.805 21.7621 26.805 21.6521 26.8233C19.1221 26.7316 17.1055 24.66 17.1055 22.0933C17.1055 19.4716 19.2138 17.3633 21.8355 17.3633C24.4571 17.3633 26.5655 19.49 26.5655 22.0933C26.5471 24.66 24.5305 26.75 22.0005 26.8233Z" stroke="#5251EC" stroke-width="2.5" stroke-linecap="round" stroke-linejoin="round"/>
<path d="M16.6653 32.5981C14.0803 34.3215 14.0803 37.1448 16.6653 38.8681C19.5986 40.8298 24.402 40.8298 27.3353 38.8681C29.9203 37.1448 29.9203 34.3215 27.3353 32.5981C24.4203 30.6548 19.5986 30.6548 16.6653 32.5981Z" stroke="#5251EC" stroke-width="2.5" stroke-linecap="round" stroke-linejoin="round"/>
</svg>
