<svg width="44" height="44" viewBox="0 0 44 44" fill="none" xmlns="http://www.w3.org/2000/svg">
<path d="M31.0938 11.3125C34.7604 13.8608 37.2904 17.9125 37.8038 22.5875" stroke="#5251EC" stroke-width="2.5" stroke-linecap="round" stroke-linejoin="round"/>
<path d="M6.39844 22.6773C6.8751 18.0207 9.36844 13.969 12.9984 11.4023" stroke="#5251EC" stroke-width="2.5" stroke-linecap="round" stroke-linejoin="round"/>
<path d="M15.0146 38.3906C17.1413 39.4723 19.5613 40.0773 22.1097 40.0773C24.5663 40.0773 26.8763 39.5273 28.948 38.519" stroke="#5251EC" stroke-width="2.5" stroke-linecap="round" stroke-linejoin="round"/>
<path d="M22.1103 14.1152C24.9252 14.1152 27.207 11.8334 27.207 9.01854C27.207 6.20373 24.9252 3.92188 22.1103 3.92188C19.2955 3.92188 17.0137 6.20373 17.0137 9.01854C17.0137 11.8334 19.2955 14.1152 22.1103 14.1152Z" stroke="#5251EC" stroke-width="2.5" stroke-linecap="round" stroke-linejoin="round"/>
<path d="M8.85546 36.5215C11.6703 36.5215 13.9521 34.2396 13.9521 31.4248C13.9521 28.61 11.6703 26.3281 8.85546 26.3281C6.04064 26.3281 3.75879 28.61 3.75879 31.4248C3.75879 34.2396 6.04064 36.5215 8.85546 36.5215Z" stroke="#5251EC" stroke-width="2.5" stroke-linecap="round" stroke-linejoin="round"/>
<path d="M35.1445 36.5215C37.9593 36.5215 40.2412 34.2396 40.2412 31.4248C40.2412 28.61 37.9593 26.3281 35.1445 26.3281C32.3297 26.3281 30.0479 28.61 30.0479 31.4248C30.0479 34.2396 32.3297 36.5215 35.1445 36.5215Z" stroke="#5251EC" stroke-width="2.5" stroke-linecap="round" stroke-linejoin="round"/>
</svg>
