<svg width="52" height="52" viewBox="0 0 52 52" fill="none" xmlns="http://www.w3.org/2000/svg">
<rect width="52" height="52" rx="26" fill="#5251EC"/>
<path d="M26 31.625C29.1066 31.625 31.625 29.1066 31.625 26C31.625 22.8934 29.1066 20.375 26 20.375C22.8934 20.375 20.375 22.8934 20.375 26C20.375 29.1066 22.8934 31.625 26 31.625Z" stroke="#FEFEFF" stroke-width="2" stroke-miterlimit="10"/>
<path d="M32.1875 13.0625H19.8125C16.0846 13.0625 13.0625 16.0846 13.0625 19.8125V32.1875C13.0625 35.9154 16.0846 38.9375 19.8125 38.9375H32.1875C35.9154 38.9375 38.9375 35.9154 38.9375 32.1875V19.8125C38.9375 16.0846 35.9154 13.0625 32.1875 13.0625Z" stroke="#FEFEFF" stroke-width="2" stroke-linecap="round" stroke-linejoin="round"/>
<path d="M33.3125 20.375C34.2445 20.375 35 19.6195 35 18.6875C35 17.7555 34.2445 17 33.3125 17C32.3805 17 31.625 17.7555 31.625 18.6875C31.625 19.6195 32.3805 20.375 33.3125 20.375Z" fill="#FEFEFF"/>
</svg>
