<svg width="52" height="52" viewBox="0 0 52 52" fill="none" xmlns="http://www.w3.org/2000/svg">
<rect width="52" height="52" rx="26" fill="#5251EC"/>
<path d="M26 39.5C33.4558 39.5 39.5 33.4558 39.5 26C39.5 18.5442 33.4558 12.5 26 12.5C18.5442 12.5 12.5 18.5442 12.5 26C12.5 33.4558 18.5442 39.5 26 39.5Z" stroke="#FEFEFF" stroke-width="2" stroke-linecap="round" stroke-linejoin="round"/>
<path d="M31.625 20.375H29.375C28.9313 20.3732 28.4916 20.4592 28.0813 20.6281C27.671 20.7971 27.2982 21.0456 26.9844 21.3594C26.6706 21.6732 26.4221 22.046 26.2531 22.4563C26.0842 22.8666 25.9982 23.3063 26 23.75V39.5" stroke="#FEFEFF" stroke-width="2" stroke-linecap="round" stroke-linejoin="round"/>
<path d="M21.5 28.25H30.5" stroke="#FEFEFF" stroke-width="2" stroke-linecap="round" stroke-linejoin="round"/>
</svg>
